<svg xmlns="http://www.w3.org/2000/svg" width="100" height="100" viewBox="0 0 265 64" version="1.1" xml:space="preserve" stroke-linejoin="round"><style>.s0{fill:#4d4f51;}.s1{fill:#b8bdb9;}</style><g transform="matrix(1.48034,0,0,1.48034,-75.8228,-149.239)"><path d="M66.4 121.6c0-1-0.3-1.7-1-2.3 -0.7-0.5-1.9-1.1-3.6-1.7 -1.7-0.6-3.2-1.1-4.3-1.7 -3.6-1.8-5.4-4.2-5.4-7.3 0-1.5 0.4-2.9 1.3-4.1 0.9-1.2 2.2-2.1 3.8-2.7 1.6-0.7 3.5-1 5.5-1 2 0 3.8 0.4 5.4 1.1 1.6 0.7 2.8 1.7 3.7 3 0.9 1.3 1.3 2.8 1.3 4.5l-6.7 0c0-1.1-0.3-2-1-2.6 -0.7-0.6-1.6-0.9-2.8-0.9 -1.2 0-2.1 0.3-2.8 0.8 -0.7 0.5-1 1.2-1 2 0 0.7 0.4 1.4 1.1 1.9 0.8 0.6 2.1 1.2 4 1.8 1.9 0.6 3.5 1.3 4.7 2 3 1.7 4.5 4.1 4.5 7.1 0 2.4-0.9 4.3-2.7 5.7 -1.8 1.4-4.3 2.1-7.5 2.1 -2.2 0-4.3-0.4-6.1-1.2 -1.8-0.8-3.2-1.9-4.1-3.3 -0.9-1.4-1.4-3-1.4-4.9l6.7 0c0 1.5 0.4 2.6 1.2 3.3 0.8 0.7 2 1.1 3.7 1.1 1.1 0 2-0.2 2.6-0.7 0.6-0.5 1-1.1 1-2ZM83.7 103.2l0 5.1 3.4 0 0 4.5 -3.4 0 0 9.4c0 0.8 0.1 1.3 0.4 1.6 0.3 0.3 0.8 0.5 1.7 0.5 0.6 0 1.2 0 1.6-0.1l0 4.6c-1.2 0.4-2.4 0.6-3.6 0.6 -2.2 0-3.8-0.5-4.9-1.6 -1.1-1-1.6-2.6-1.6-4.7l0-10.2 -2.6 0 0-4.5 2.6 0 0-5.1 6.4 0ZM88.3 118.4c0-2.1 0.4-3.9 1.2-5.5 0.8-1.6 2-2.8 3.5-3.7 1.5-0.9 3.3-1.3 5.3-1.3 3.1 0 5.5 1 7.3 2.9 1.8 1.9 2.7 4.5 2.7 7.8l0 0.2c0 3.2-0.9 5.8-2.7 7.7 -1.8 1.9-4.2 2.8-7.3 2.8 -2.9 0-5.3-0.9-7.1-2.6 -1.8-1.8-2.7-4.1-2.9-7.2l0-1.1ZM94.7 118.8c0 1.9 0.3 3.3 0.9 4.2 0.6 0.9 1.5 1.3 2.6 1.3 2.3 0 3.5-1.8 3.5-5.3l0-0.6c0-3.7-1.2-5.5-3.5-5.5 -2.1 0-3.3 1.6-3.5 4.8l0 1.2ZM123.5 114.1l-2.1-0.2c-2 0-3.3 0.6-3.9 1.9l0 13.1 -6.4 0 0-20.6 6 0 0.2 2.7c1.1-2 2.6-3 4.5-3 0.7 0 1.3 0.1 1.8 0.2l-0.1 6ZM134.4 120l3.4-11.6 6.9 0 -8.4 24.1 -0.4 0.9c-1.2 2.7-3.3 4-6.3 4 -0.8 0-1.7-0.1-2.6-0.4l0-4.6 0.8 0c0.9 0 1.6-0.1 2.1-0.4 0.5-0.3 0.8-0.7 1.1-1.4l0.5-1.4 -7.2-20.8 6.9 0 3.3 11.6ZM166.9 103.2l-9.5 0 0 25.8 -2.3 0 0-25.8 -9.5 0 0-2 21.3 0 0 2ZM173.4 128.9l-2.3 0 0-20.6 2.3 0 0 20.6ZM170.7 102.4c0-0.4 0.1-0.8 0.4-1.1 0.3-0.3 0.7-0.4 1.1-0.4 0.5 0 0.9 0.1 1.2 0.4 0.3 0.3 0.4 0.7 0.4 1.1 0 0.4-0.1 0.8-0.4 1.1 -0.3 0.3-0.7 0.4-1.2 0.4 -0.5 0-0.9-0.1-1.1-0.4 -0.3-0.3-0.4-0.7-0.4-1.1ZM181.7 108.3l0.1 3.4c0.8-1.2 1.7-2.2 2.9-2.8 1.1-0.6 2.4-0.9 3.8-0.9 3.3 0 5.3 1.3 6.2 4 0.7-1.3 1.7-2.3 3-3 1.2-0.7 2.6-1 4.1-1 4.4 0 6.7 2.4 6.8 7.2l0 13.8 -2.3 0 0-13.6c0-1.8-0.4-3.2-1.2-4.1 -0.8-0.9-2.1-1.3-3.8-1.3 -1.6 0-3 0.6-4.2 1.6 -1.1 1-1.8 2.3-1.9 3.8l0 13.6 -2.3 0 0-13.8c0-1.8-0.4-3.1-1.2-4 -0.8-0.9-2.1-1.3-3.8-1.3 -1.4 0-2.7 0.4-3.7 1.2 -1 0.8-1.8 2-2.3 3.7l0 14.1 -2.3 0 0-20.6 2.2 0ZM222.2 129.3c-1.8 0-3.3-0.4-4.8-1.3 -1.4-0.9-2.5-2.1-3.3-3.6 -0.8-1.5-1.2-3.3-1.2-5.2l0-0.8c0-2 0.4-3.8 1.2-5.4 0.8-1.6 1.8-2.8 3.2-3.7 1.4-0.9 2.9-1.4 4.5-1.4 2.5 0 4.5 0.9 6 2.6 1.5 1.7 2.2 4 2.2 7l0 1.3 -14.7 0 0 0.4c0 2.3 0.7 4.3 2 5.8 1.3 1.6 3 2.3 5.1 2.3 1.2 0 2.3-0.2 3.2-0.7 0.9-0.4 1.8-1.2 2.5-2.1l1.4 1.1c-1.7 2.4-4.1 3.6-7.3 3.6ZM221.7 109.9c-1.7 0-3.2 0.6-4.3 1.9 -1.2 1.3-1.9 2.9-2.1 5.1l12.4 0 0-0.2c-0.1-2-0.6-3.6-1.7-4.8 -1.1-1.2-2.5-1.9-4.2-1.9Z" fill="#4d4f51"/></g><path d="M143 57.8c0-1.1 0.2-2.2 0.7-3.1 0.4-0.9 1.1-1.6 1.9-2.1 0.8-0.5 1.8-0.7 2.9-0.7 1.7 0 3.1 0.5 4.1 1.6 1 1.1 1.5 2.5 1.5 4.3l0 0.1c0 1.8-0.5 3.2-1.5 4.3 -1 1-2.3 1.6-4 1.6 -1.6 0-2.9-0.5-3.9-1.5 -1-1-1.5-2.3-1.6-4l0-0.6ZM146.6 58c0 1.1 0.2 1.8 0.5 2.3 0.3 0.5 0.8 0.7 1.5 0.7 1.3 0 1.9-1 1.9-2.9l0-0.4c0-2.1-0.7-3.1-2-3.1 -1.2 0-1.8 0.9-1.9 2.7l0 0.6ZM158.9 52.2l0.1 1.3c0.8-1 1.9-1.6 3.3-1.6 1.2 0 2.1 0.4 2.7 1.1 0.6 0.7 0.9 1.8 0.9 3.2l0 7.4 -3.6 0 0-7.2c0-0.6-0.1-1-0.3-1.3 -0.2-0.3-0.7-0.4-1.3-0.4 -0.7 0-1.2 0.3-1.6 0.8l0 8.1 -3.6 0 0-11.5 3.3 0ZM183.2 57.5l-6 0 0 6.1 -3.7 0 0-15.4 10.3 0 0 2.9 -6.6 0 0 3.6 6 0 0 2.9ZM189.1 60.8l6.5 0 0 2.9 -10.2 0 0-15.4 3.7 0 0 12.6ZM209.5 56.2c0 1.5-0.3 2.8-0.8 4 -0.6 1.2-1.4 2.1-2.4 2.7 -1 0.6-2.2 0.9-3.5 0.9 -1.3 0-2.5-0.3-3.5-0.9 -1-0.6-1.8-1.5-2.4-2.6 -0.6-1.1-0.9-2.4-0.9-3.9l0-0.9c0-1.5 0.3-2.8 0.8-4 0.6-1.2 1.4-2 2.4-2.7 1-0.6 2.2-0.9 3.5-0.9 1.3 0 2.5 0.3 3.5 0.9 1 0.6 1.8 1.5 2.4 2.7 0.6 1.1 0.9 2.5 0.9 3.9l0 0.7ZM205.7 55.6c0-1.5-0.3-2.7-0.8-3.5 -0.5-0.8-1.2-1.2-2.2-1.2 -1.9 0-2.8 1.4-3 4.2l0 1.1c0 1.5 0.3 2.7 0.8 3.5 0.5 0.8 1.2 1.2 2.2 1.2 0.9 0 1.7-0.4 2.2-1.2 0.5-0.8 0.8-1.9 0.8-3.4l0-0.7ZM224.5 56.2c0 1.5-0.3 2.8-0.8 4 -0.6 1.2-1.4 2.1-2.4 2.7 -1 0.6-2.2 0.9-3.5 0.9 -1.3 0-2.5-0.3-3.5-0.9 -1-0.6-1.8-1.5-2.4-2.6 -0.6-1.1-0.9-2.4-0.9-3.9l0-0.9c0-1.5 0.3-2.8 0.8-4 0.6-1.2 1.3-2 2.4-2.7 1-0.6 2.2-0.9 3.5-0.9 1.3 0 2.5 0.3 3.5 0.9 1 0.6 1.8 1.5 2.4 2.7 0.6 1.1 0.9 2.5 0.9 3.9l0 0.7ZM220.7 55.6c0-1.5-0.3-2.7-0.8-3.5 -0.5-0.8-1.2-1.2-2.2-1.2 -1.9 0-2.8 1.4-3 4.2l0 1.1c0 1.5 0.3 2.7 0.8 3.5 0.5 0.8 1.2 1.2 2.2 1.2 0.9 0 1.7-0.4 2.2-1.2 0.5-0.8 0.8-1.9 0.8-3.4l0-0.7ZM232.1 58.2l-2 0 0 5.4 -3.7 0 0-15.4 6.1 0c1.8 0 3.3 0.4 4.3 1.2 1 0.8 1.5 2 1.5 3.4 0 1.1-0.2 2-0.7 2.7 -0.4 0.7-1.1 1.3-2 1.7l3.2 6.2 0 0.2 -4 0 -2.7-5.4ZM230.1 55.3l2.4 0c0.7 0 1.2-0.2 1.6-0.6 0.4-0.4 0.5-0.9 0.5-1.6 0-0.7-0.2-1.2-0.5-1.6 -0.4-0.4-0.9-0.6-1.6-0.6l-2.4 0 0 4.2ZM251.1 63.6l-10.8 0 0-2.3 5-5.2c1.2-1.4 1.8-2.5 1.8-3.3 0-0.7-0.1-1.2-0.4-1.5 -0.3-0.3-0.7-0.5-1.3-0.5 -0.5 0-1 0.2-1.3 0.7 -0.3 0.5-0.5 1-0.5 1.7l-3.6 0c0-0.9 0.2-1.8 0.7-2.6 0.5-0.8 1.1-1.4 2-1.9 0.8-0.5 1.8-0.7 2.8-0.7 1.7 0 3 0.4 3.9 1.2 0.9 0.8 1.4 1.9 1.4 3.3 0 0.6-0.1 1.2-0.3 1.8 -0.2 0.6-0.6 1.2-1.1 1.8 -0.5 0.6-1.2 1.5-2.3 2.5l-2 2.3 6.1 0 0 2.8ZM256.2 54.4l1.7 0c1.3 0 2-0.7 2-2 0-0.5-0.2-0.9-0.5-1.2 -0.3-0.3-0.8-0.5-1.3-0.5 -0.5 0-0.9 0.1-1.2 0.4 -0.3 0.3-0.5 0.6-0.5 1l-3.6 0c0-0.8 0.2-1.5 0.7-2.2 0.5-0.6 1.1-1.1 1.9-1.5 0.8-0.4 1.7-0.5 2.6-0.5 1.7 0 3.1 0.4 4 1.2 1 0.8 1.5 1.9 1.5 3.2 0 0.7-0.2 1.3-0.6 1.9 -0.4 0.6-1 1.1-1.8 1.4 0.8 0.3 1.5 0.7 1.9 1.4 0.5 0.6 0.7 1.4 0.7 2.2 0 1.4-0.5 2.5-1.6 3.3 -1.1 0.8-2.5 1.2-4.2 1.2 -1 0-1.9-0.2-2.8-0.6 -0.9-0.4-1.5-0.9-2-1.6 -0.4-0.7-0.7-1.5-0.7-2.3l3.6 0c0 0.5 0.2 0.9 0.6 1.2 0.4 0.3 0.9 0.5 1.4 0.5 0.6 0 1.1-0.2 1.5-0.5 0.4-0.3 0.6-0.8 0.6-1.3 0-0.8-0.2-1.3-0.6-1.7 -0.4-0.3-0.9-0.5-1.6-0.5l-1.7 0 0-2.7Z" fill="#b8bdb9"/></svg>